<svg width="36" height="36" xmlns="http://www.w3.org/2000/svg"><g fill="#039be5" fill-rule="evenodd"><path d="M30.7 6.067H14.2A2.148 2.148 0 0 0 12.067 8.2v15.233c0 1.167.966 2.134 2.133 2.134h1.533v3.2c0 .733.434 1.4 1.134 1.666.233.1.466.134.7.134.466 0 .933-.167 1.266-.534l4.5-4.5h7.4a2.148 2.148 0 0 0 2.134-2.133V8.2c-.034-1.167-1-2.133-2.167-2.133zm.567 17.366c0 .3-.267.567-.567.567H23c-.2 0-.4.067-.567.233l-4.7 4.734c-.1.1-.2.1-.266.066-.067-.033-.167-.1-.167-.233v-4a.754.754 0 0 0-.767-.767H14.2a.584.584 0 0 1-.567-.566V8.2c0-.3.267-.567.567-.567h16.5c.3 0 .567.267.567.567v15.233z" fill-rule="nonzero"/><path d="M8.867 10.6h-2.9a.775.775 0 0 0-.767.767c0 .4.333.766.767.766h2.9a.775.775 0 0 0 .766-.766c0-.4-.333-.767-.766-.767zM8.867 14.867h-4.9a.775.775 0 0 0-.767.766c0 .4.333.767.767.767h4.9a.775.775 0 0 0 .766-.767c0-.4-.333-.766-.766-.766zM8.867 19.133H1.933a.775.775 0 0 0-.766.767c0 .4.333.767.766.767h6.9A.775.775 0 0 0 9.6 19.9c0-.4-.3-.767-.733-.767z"/><path d="M22.467 9.433a6.203 6.203 0 0 0-6.234 6.234 6.203 6.203 0 0 0 6.234 6.233c3.433 0 6.233-2.8 6.233-6.233 0-3.434-2.8-6.234-6.233-6.234zm0 10.9a4.68 4.68 0 0 1-4.667-4.666A4.68 4.68 0 0 1 22.467 11a4.68 4.68 0 0 1 4.666 4.667 4.68 4.68 0 0 1-4.666 4.666z" fill-rule="nonzero"/><path d="M24.6 14.867h-1.367V13.1a.754.754 0 0 0-.766-.767.775.775 0 0 0-.767.767v2.567c0 .433.333.766.767.766h2.166a.775.775 0 0 0 .767-.766c0-.4-.367-.8-.8-.8z"/></g></svg>