<svg width="36" height="36" xmlns="http://www.w3.org/2000/svg"><g transform="translate(2 2)" fill="#039be5" fill-rule="evenodd"><path d="M30.154 15.305h-1.477a10.332 10.332 0 0 0-3.883-5.17l.357-3.286a.615.615 0 0 0-.757-.664l-5.988 1.452a15.477 15.477 0 0 0-2.092-.142c-3.226-.046-6.372 1-8.93 2.967a10.53 10.53 0 0 0-3.076 3.87 2.683 2.683 0 0 1-1.551-4.689.615.615 0 0 0-.812-.923 3.92 3.92 0 0 0 1.926 6.806 8.615 8.615 0 0 0-.339 2.388c0 2.966 1.526 5.754 4.21 7.73l-.542.94a1.846 1.846 0 0 0-.135 1.49c.148.484.47.896.904 1.157l1.262.726a1.846 1.846 0 0 0 1.427.185c.491-.13.907-.454 1.151-.899l.702-1.385c2.279.578 4.66.626 6.96.142l.184.683a1.89 1.89 0 0 0 2.24 1.434l1.434-.314a1.895 1.895 0 0 0 1.354-2.308l-.32-1.501c1.542-.99 2.81-2.35 3.692-3.957h2.099A1.877 1.877 0 0 0 32 20.19v-3.01c0-1.024-.822-1.86-1.846-1.876zm-6.326-7.717l-.197 1.79a13.828 13.828 0 0 0-2.542-1.126l2.739-.664zm6.941 12.584c0 .34-.275.616-.615.616h-2.462a.615.615 0 0 0-.086 0 .615.615 0 0 0-.135 0 1.902 1.902 0 0 0-.197.123.615.615 0 0 0-.08.11.578.578 0 0 0-.056.074 9.76 9.76 0 0 1-3.766 4.031.615.615 0 0 0-.098.092.615.615 0 0 0-.074.074c-.034.07-.065.143-.092.216a.615.615 0 0 0 0 .104.615.615 0 0 0 0 .136l.412 1.914a.695.695 0 0 1-.412.843l-1.477.418a.665.665 0 0 1-.776-.53l-.338-1.273a.615.615 0 0 0-.05-.092.615.615 0 0 0-.06-.123.615.615 0 0 0-.075-.062.615.615 0 0 0-.104-.092h-.08a.615.615 0 0 0-.142-.05h-.092a.615.615 0 0 0-.148 0c-2.431.596-4.975.551-7.384-.129h-.308l-.11.037-.1.056-.092.073a.615.615 0 0 0-.074.093.578.578 0 0 0-.043.049l-.91 1.797a.615.615 0 0 1-.388.295.615.615 0 0 1-.492-.067l-1.268-.733a.818.818 0 0 1-.345-.455.615.615 0 0 1 0-.505l.825-1.421a.578.578 0 0 0 .03-.099.615.615 0 0 0 .038-.117.615.615 0 0 0 0-.117.363.363 0 0 0-.037-.227.615.615 0 0 0-.05-.105.615.615 0 0 0-.086-.086.615.615 0 0 0-.074-.074c-2.627-1.754-4.135-4.308-4.135-7.04 0-.933.175-1.858.517-2.726v-.043a9.188 9.188 0 0 1 2.85-3.692 13.077 13.077 0 0 1 8.165-2.696c.684 0 1.367.05 2.043.148h.031c1.935.264 3.785.964 5.41 2.05a9.065 9.065 0 0 1 3.833 5.144v.043a.615.615 0 0 0 .056.11c.06.1.144.184.246.24l.104.038H30.154c.34 0 .615.275.615.615v3.015z" fill-rule="nonzero"/><path d="M16.492 10.69a6.923 6.923 0 0 0-4.35 1.52.619.619 0 1 0 .781.96 5.766 5.766 0 0 1 7.539.368.616.616 0 1 0 .849-.892 6.96 6.96 0 0 0-4.819-1.957z"/><circle cx="24.966" cy="16.326" r="1"/><path d="M16.185 5.612a2.806 2.806 0 1 0 0-5.612 2.806 2.806 0 0 0 0 5.612zm0-4.381a1.575 1.575 0 1 1 0 3.15 1.575 1.575 0 0 1 0-3.15z" fill-rule="nonzero"/></g></svg>